# xmcd
#
# Track frame offsets: 
#        300
#        35543
#        53816
#        84317
#        103034
#        132184
#        150061
#        173255
#        193688
#        220932
#
# Disc length: 3100 seconds
#
# Revision: 0
# Processed by: cddbd v1.5.2PL0 Copyright (c) Steve Scherf et al.
# Submitted via: ExactAudioCopy v0.99pb5
#
DISCID=740c180a
DTITLE=А. Северный - Памяти Кости-моряка cd 1
DYEAR=1976
DGENRE=Chanson
TTITLE0=1. Об Одессе-маме
TTITLE1=2. Ужасно шумно в доме Шнеерсона...
TTITLE2=3. Посвящается Хаиму
TTITLE3=4. Гоп со смыком
TTITLE4=5. Луной озарились хрустальные воды...
TTITLE5=6. Всюду деньги, деньги, деньги...
TTITLE6=7. Пиковая дама
TTITLE7=8. Цыпленок жареный
TTITLE8=9. Алеша-ша!
TTITLE9=10. Костылем стучу в дверь ресторана...
EXTD=
EXTT0=
EXTT1=
EXTT2=
EXTT3=
EXTT4=
EXTT5=
EXTT6=
EXTT7=
EXTT8=
EXTT9=
PLAYORDER=
